<?xml version="1.0" encoding="UTF-8" standalone="no"?>
<!-- Created with Inkscape (http://www.inkscape.org/) -->
<svg xmlns:rdf="http://www.w3.org/1999/02/22-rdf-syntax-ns#" xmlns="http://www.w3.org/2000/svg" height="32px" width="32px" version="1.1" xmlns:cc="http://creativecommons.org/ns#" xmlns:xlink="http://www.w3.org/1999/xlink" xmlns:dc="http://purl.org/dc/elements/1.1/">
 <defs></defs>
 <metadata>
  <rdf:RDF>
   <cc:Work rdf:about="">
    <dc:format>image/svg+xml</dc:format>
    <dc:type rdf:resource="http://purl.org/dc/dcmitype/StillImage"/>
    <dc:title/>
   </cc:Work>
  </rdf:RDF>
 </metadata>
 <path d="M8.01566,27.1877c-0.96804-0.053-1.79118-0.2069-2.7204-0.5116-0.59236-0.1941-1.46608-0.6137-2.00746-0.9637-0.17058-0.1098-0.32-0.2002-0.33509-0.2002-0.023529,0-0.111765-0.07451-0.218236-0.170589-0.10392-0.0922-0.28804-0.2514-0.40745-0.3514-0.32589-0.2725-1.02098-1.062-1.22353-1.3886-0.09804-0.1569-0.270593-0.4724-0.383534-0.6969-0.795688-1.5847-0.933727-3.5241-0.404707-5.6898,0.141177-0.573727,0.479217-1.64,0.62706-1.97216,0.0450981-0.1,0.143138-0.334314,0.222746-0.521374,0.200196-0.479412,0.836864-1.73647,1.02569-2.02098,0.086275-0.129412,0.156863-0.251569,0.156863-0.267451,0-0.02353,0.109804-0.184314,0.243138-0.377452,0.133334-0.192157,0.296667-0.430589,0.362158-0.530393,0.066667-0.09804,0.17451-0.250589,0.244314-0.335099,0.068628-0.08431,0.135294-0.178432,0.143138-0.204706,0.023529-0.02745,0.04902-0.08235,0.094118-0.117647,0.043137-0.03922,0.154902-0.170589,0.253334-0.294511,0.220589-0.278824,1.35039-1.4953,1.38157-1.48785,0.023529,0,0.170588-0.133334,0.351373-0.305099,0.18039-0.17046,0.37-0.33928,0.42039-0.37438,0.04902-0.03529,0.16863-0.13333,0.26059-0.22059,0.09412-0.08627,0.29157-0.24176,0.44118-0.34608,0.15098-0.10392,0.39059-0.27392,0.53627-0.37627,0.7851-0.55196,2.30569-1.37393,3.13592-1.6951,2.42275-0.936668,4.68079-1.20588,6.48354-0.772747,0.845296,0.204706,1.68314,0.537452,2.11118,0.842158,0.06863,0.047059,0.137255,0.088235,0.152941,0.088235,0.02353,0,0.194118,0.127451,0.396472,0.282746,0.400392,0.305491,0.964511,0.844315,1.21824,1.16275,0.08628,0.109804,0.204706,0.257648,0.265099,0.330001,0.127451,0.156863,0.550197,0.852551,0.550197,0.906472,0,0.023529,0.02353,0.039216,0.04314,0.039216,0.02353,0,0.06471,0.056863,0.08824,0.12549,0.02549,0.070588,0.1,0.247059,0.162745,0.396667,0.206863,0.480981,0.333922,0.812354,0.375491,0.9751l0.04118,0.158824,0.172549-0.272353c0.09608-0.150981,0.230392-0.363726,0.301177-0.47608,0.07255-0.111765,0.145098-0.225098,0.168628-0.250393,0.02353-0.02549,0.07843-0.105882,0.123529-0.182353,0.150981-0.243922,0.484315-0.763531,0.708629-1.10294,0.12353-0.182353,0.220589-0.351569,0.220589-0.373922,0-0.023529,0.02353-0.039216,0.04118-0.039216,0.02353,0,0.04902-0.037255,0.06863-0.080392,0.03333-0.098039,0.206863-0.388432,0.251961-0.419609,0.04314-0.031373,0.320589-0.440589,0.320589-0.474707,0-0.023529,0.02353-0.052941,0.04706-0.082353,0.111765-0.129412,0.633531-0.941963,0.633531-0.983727,0-0.031373,0.972747-0.045098,2.92804-0.045098,1.67314,0,2.92158,0.02353,2.91295,0.041177-0.02549,0.068628-0.559805,0.907453-1.32255,2.07942-0.166667,0.255098-0.301766,0.475491-0.301766,0.489217,0,0.023529-0.02353,0.04902-0.04706,0.080392-0.02549,0.029412-0.129412,0.186275-0.232745,0.349608-0.101961,0.160785-0.237844,0.376275-0.30255,0.475883-0.06667,0.098039-0.154902,0.252746-0.204706,0.340001-0.0451,0.088235-0.09804,0.168628-0.113726,0.180392-0.02353,0.02353-0.08235,0.103922-0.147059,0.204706-0.458628,0.701766-0.720001,1.11216-0.720001,1.13118,0,0.02353-0.07647,0.141176-0.17255,0.284118-0.406667,0.614511-0.597452,0.920982-0.597452,0.960394,0,0.02353-0.02353,0.04706-0.03726,0.05686-0.04118,0.02353-0.598824,0.859609-0.725491,1.09177-0.04314,0.08235-0.196079,0.320785-0.335491,0.532942-0.141177,0.211569-0.258628,0.405491-0.262942,0.430589,0,0.02549-0.04118,0.08235-0.08039,0.12353-0.03922,0.04314-0.09412,0.117647-0.119608,0.164706-0.02745,0.0451-0.109804,0.172549-0.180393,0.282941-0.07255,0.109804-0.209216,0.321569-0.303726,0.471177-0.09608,0.14902-0.231765,0.353727-0.305294,0.453335-0.07255,0.09804-0.204707,0.29353-0.291177,0.430589l-0.156863,0.249412,0.109804,0.362746c0.304902,1.01255,1.11294,3.50648,1.1902,3.67236,0.02353,0.04902,0.08235,0.213726,0.133334,0.362745,0.364314,1.0851,0.665883,1.76,0.992551,2.22157,0.200196,0.281177,0.944315,1.02,1.02882,1.02,0.03333,0,0.07059,0.02353,0.07451,0.03333,0.03333,0.07451,0.671178,0.373922,0.990002,0.463334,0.791374,0.220589,1.86334,0.287256,2.91452,0.178432,0.269412-0.02745,0.502354-0.03922,0.518236-0.02353,0.02353,0.02353-0.02353,0.07451-0.07059,0.131372-0.05294,0.05686-0.09804,0.121569-0.09804,0.137256,0,0.05098-0.307844,0.346863-0.359021,0.346863-0.02353,0-0.06078,0.02745-0.08039,0.06471-0.03922,0.06667-0.298236,0.270785-0.781178,0.614315-0.336079,0.238236-1.10196,0.621766-1.54471,0.772158-0.938237,0.319216-2.42981,0.367648-3.44569,0.111765-2.20118-0.554315-3.57628-1.92824-4.37609-4.37197-0.133334-0.411374-0.277648-0.865296-0.31804-1.00863-0.04118-0.143137-0.08628-0.259804-0.103922-0.258432-0.02353,0-0.139216,0.127452-0.26902,0.28353-0.57157,0.673531-0.825296,0.93863-1.4202,1.48628-0.744315,0.684903-1.61706,1.35981-2.25118,1.74138-0.04118,0.02549-0.111765,0.07647-0.154902,0.115686-0.04314,0.03922-0.22902,0.150981-0.410393,0.243334-0.509413,0.267256-1.56942,0.796668-1.59569,0.796668-0.02353,0-0.133334,0.04902-0.271373,0.113726-0.444511,0.204706-1.53,0.561178-2.26491,0.746668-1.05765,0.267059-1.78,0.362354-3.2251,0.425099-0.172549,0-0.592942,0-0.929217-0.02353zm1.04098-2.78432c0.386667-0.06863,0.706472-0.156863,0.999022-0.28255,0.08628-0.03921,0.200196-0.08235,0.249608-0.1,0.27706-0.103922,1.15804-0.570001,1.20118-0.635687,0.02353-0.02353,0.103922-0.08039,0.204706-0.135295,0.204707-0.111765,0.510197-0.320392,0.770198-0.524903,0.536472-0.421961,0.694511-0.553922,0.824904-0.68902,0.07647-0.08235,0.160784-0.150981,0.182353-0.150981,0.02353,0,0.1-0.06863,0.172549-0.147059,0.07255-0.08235,0.332354-0.328824,0.575296-0.550786,0.242353-0.222941,0.440981-0.42,0.440981-0.440589,0-0.02353,0.143137-0.180392,0.317255-0.351373,0.174511-0.172549,0.317648-0.325883,0.317648-0.340393,0-0.02353,0.103922-0.135294,0.230197-0.26549,0.313137-0.324707,1.26588-1.50863,1.26588-1.57294,0-0.02941,0.02941-0.06471,0.06863-0.07647,0.03922-0.02353,0.06863-0.0451,0.06863-0.07059,0-0.02353,0.04314-0.08824,0.09608-0.143137,0.113726-0.12353,0.822159-1.10471,0.900198-1.2504,0.03137-0.05686,0.131373-0.206863,0.227451-0.330393,0.09608-0.123529,0.211569-0.300588,0.26255-0.392549,0.04902-0.09216,0.150981-0.268824,0.220589-0.393727,0.172549-0.297647,0.166667-0.576863-0.02549-1.36-0.307262-1.25353-0.847067-3.02432-1.09962-3.60432-0.0471-0.1118-0.1236-0.2831-0.1628-0.38-0.1784-0.41903-0.5051-1.02962-0.7273-1.36315-0.2355-0.35451-0.9696-1.11333-1.0764-1.11333-0.02941,0-0.06078-0.023529-0.06863-0.035294-0.02745-0.066667-0.602746-0.321569-0.883139-0.392746-0.41451-0.103922-0.969217-0.090196-1.47569,0.039216-0.736668,0.186275-1.62138,0.664315-2.17236,1.17216-0.04706,0.043137-0.09804,0.080392-0.109804,0.080392-0.06667,0-1.16608,1.0753-1.40432,1.3702-0.07451,0.094118-0.204706,0.245883-0.286275,0.340196-0.26255,0.298432-0.552354,0.683727-0.552354,0.734316,0,0.02745-0.023529,0.04706-0.039216,0.04706-0.02353,0-0.127451,0.135294-0.23804,0.299804-0.109802,0.166667-0.22941,0.345687-0.266861,0.401765-0.308432,0.460982-0.433922,0.660198-0.514119,0.816865-0.04902,0.1-0.105883,0.190196-0.12549,0.204706-0.098039,0.07059-1.26628,2.40942-1.26628,2.53197,0,0.02353-0.043137,0.121569-0.090196,0.222942-0.047059,0.101961-0.194118,0.499804-0.319412,0.881374-0.801766,2.43275-0.922747,4.12864-0.411962,5.77138,0.196079,0.630198,0.688825,1.3,1.22079,1.65902,0.723923,0.488628,1.61608,0.673335,2.50118,0.517452z" fill="#e6e6e6"/>
</svg>
