<?xml version="1.0" encoding="UTF-8" standalone="no"?>
<!-- Created with Inkscape (http://www.inkscape.org/) -->
<svg xmlns:rdf="http://www.w3.org/1999/02/22-rdf-syntax-ns#" xmlns="http://www.w3.org/2000/svg" height="32px" width="32px" version="1.1" xmlns:cc="http://creativecommons.org/ns#" xmlns:xlink="http://www.w3.org/1999/xlink" xmlns:dc="http://purl.org/dc/elements/1.1/">
 <defs>
  <linearGradient id="linearGradient20253" y2="1501.99" gradientUnits="userSpaceOnUse" x2="234.081" gradientTransform="matrix(2.1326944,0,0,2.1333376,-467.12823,-3172.2378)" y1="1486.97" x1="219.302">
   <stop stop-color="#e6e6e6" offset="0"/>
   <stop stop-color="#aaaaaa" offset="1"/>
  </linearGradient>
 </defs>
 <metadata>
  <rdf:RDF>
   <cc:Work rdf:about="">
    <dc:format>image/svg+xml</dc:format>
    <dc:type rdf:resource="http://purl.org/dc/dcmitype/StillImage"/>
    <dc:title/>
   </cc:Work>
  </rdf:RDF>
 </metadata>
 <path fill="url(#linearGradient20253)" d="m4.27462,0.000032795,0,4.26638-4.26539,0,0,4.26687,4.26539,0,0,16.9337-3.99877,3.99958,1.86608,1.86689,3.59894-3.60014,17.728,0,0,4.26671,4.2654,0,0-4.26671,4.26537,0,0-4.26671-4.26537,0,0-17.7336l3.8655-3.86651-1.8661-1.86656-4.2654,4.26638h-16.9282v-4.26638h-4.26539zm4.26539,8.53325,12.6629,0-12.6629,12.6665,0-12.6665zm14.9289,1.46678,0,13.4665-13.4626,0,13.4626-13.4665z"/>
</svg>
