<?xml version="1.0" encoding="UTF-8" standalone="no"?>
<!-- Created with Inkscape (http://www.inkscape.org/) -->
<svg xmlns:rdf="http://www.w3.org/1999/02/22-rdf-syntax-ns#" xmlns="http://www.w3.org/2000/svg" height="32px" width="32px" version="1.1" xmlns:cc="http://creativecommons.org/ns#" xmlns:xlink="http://www.w3.org/1999/xlink" xmlns:dc="http://purl.org/dc/elements/1.1/">
 <defs>
  <linearGradient id="linearGradient10839" y2="1394.79" gradientUnits="userSpaceOnUse" x2="233.411" gradientTransform="matrix(2.133328,0,0,2.133328,-465.94323,-2945.0175)" y1="1381.18" x1="218.478">
   <stop stop-color="#e6e6e6" offset="0"/>
   <stop stop-color="#aaaaaa" offset="1"/>
  </linearGradient>
 </defs>
 <metadata>
  <rdf:RDF>
   <cc:Work rdf:about="">
    <dc:format>image/svg+xml</dc:format>
    <dc:type rdf:resource="http://purl.org/dc/dcmitype/StillImage"/>
    <dc:title/>
   </cc:Work>
  </rdf:RDF>
 </metadata>
 <path d="m10.6667,1.06651,0,10.6667,10.6666,0,0-10.6667-10.6666,0zm18.1333,2.06669c-1.42121,0-2.5826,0.918104-3,2.2h-2.33333v2.13334h2.39999c0.47167,1.17909,1.58576,2.06685,2.93334,2.06685,1.76733,0,3.2-1.43295,3.2-3.20002,0-1.76756-1.43267-3.20018-3.2-3.20018zm-25.6,0.06633c-1.7673,0-3.19997,1.43279-3.19997,3.20002s1.43267,3.20002,3.19997,3.20002c1.37704,0,2.5487-0.912964,3.00001-2.13318h2.33331v-2.13334h-2.33331c-0.43484-1.25106-1.60087-2.13352-3.00001-2.13352zm10.7333,1.13349,4.13332,0,0,4.06655-4.13332,0,0-4.06655zm-5.39993,5.26704c-2.14845,0-8.54845,4.26652-8.53329,21.3334h4.26665c0-10.6669,2.11819-14.9334,4.26664-17.0669v-4.26652zm14.9333,0,0,4.26652c2.14847,2.13351,4.26667,6.40003,4.26667,17.0669h4.26665c0.0149-17.0669-6.3849-21.3334-8.5333-21.3334z" fill="url(#linearGradient10839)"/>
</svg>
