<?xml version="1.0" encoding="UTF-8" standalone="no"?>
<!-- Created with Inkscape (http://www.inkscape.org/) -->
<svg xmlns:rdf="http://www.w3.org/1999/02/22-rdf-syntax-ns#" xmlns="http://www.w3.org/2000/svg" height="32px" width="32px" version="1.1" xmlns:cc="http://creativecommons.org/ns#" xmlns:xlink="http://www.w3.org/1999/xlink" xmlns:dc="http://purl.org/dc/elements/1.1/">
 <defs></defs>
 <metadata>
  <rdf:RDF>
   <cc:Work rdf:about="">
    <dc:format>image/svg+xml</dc:format>
    <dc:type rdf:resource="http://purl.org/dc/dcmitype/StillImage"/>
    <dc:title/>
   </cc:Work>
  </rdf:RDF>
 </metadata>
 <g transform="matrix(0.245836,0,0,0.25207773,-609.49802,-172.90283)" fill="#e6e6e6">
  <path d="m1907.75,1500.36c0.521-2.1216,2.3741-3.8996,4.6563-4.7997-0.3589,0.6096-0.5624,1.3039-0.5624,2.0625,0,2.2659,1.8278,4.0938,4.0937,4.0938s4.125-1.8279,4.125-4.0938c0-0.7586-0.2348-1.4529-0.5937-2.0625,2.2836,0.8998,4.1662,2.6772,4.6874,4.7997,0-5-4.1016-8-8.2032-8-4.1015,0-8.2031,3-8.2031,8z" transform="matrix(7.9340301,0,0,7.9340301,-12656.858,-11128.75)"/>
  <path d="m1907.75,1500.36c3.0762,2,13.3301,2,16.4063,0,0-5-4.1016-8-8.2032-8-4.1015,0-8.2031,3-8.2031,8z" transform="matrix(7.9340301,0,0,7.9340301,-12656.858,-11128.75)"/>
 </g>
</svg>
