<?xml version="1.0" encoding="UTF-8" standalone="no"?>
<!-- Created with Inkscape (http://www.inkscape.org/) -->
<svg xmlns:rdf="http://www.w3.org/1999/02/22-rdf-syntax-ns#" xmlns="http://www.w3.org/2000/svg" height="32px" width="32px" version="1.1" xmlns:cc="http://creativecommons.org/ns#" xmlns:xlink="http://www.w3.org/1999/xlink" xmlns:dc="http://purl.org/dc/elements/1.1/">
 <defs>
  <linearGradient id="linearGradient16323" y2="2033.22" gradientUnits="userSpaceOnUse" x2="2023.38" gradientTransform="matrix(1.79334,0,0,2.0317461,-3596.5993,-4098.9843)" y1="2017.07" x1="2005.91">
   <stop stop-color="#e6e6e6" offset="0"/>
   <stop stop-color="#aaaaaa" offset="1"/>
  </linearGradient>
 </defs>
 <metadata>
  <rdf:RDF>
   <cc:Work rdf:about="">
    <dc:format>image/svg+xml</dc:format>
    <dc:type rdf:resource="http://purl.org/dc/dcmitype/StillImage"/>
    <dc:title/>
   </cc:Work>
  </rdf:RDF>
 </metadata>
 <path d="m12.5534-2.06527E-7,0,4.06349-12.5534,0,0,10.857,3.47478,0,0-6.92074,5.82836,0,3.25025,0,3.47478,0,0-4.06349,12.4972,0,0,13.9683,0,10.1587-15.972,0-9.0786,0,0-2.09514-3.47478,0,0,6.03185,12.5534,0,19.4466,0,0-27.9365,0-4.06349-19.4466,0zm2.522,13.7143l-9.3589,5.77768,9.3589,5.77768v-4.31746h8.35033v-3.1744h-8.35033v-4.06349z" fill="url(#linearGradient16323)"/>
</svg>
