<?xml version="1.0" encoding="UTF-8" standalone="no"?>
<!-- Created with Inkscape (http://www.inkscape.org/) -->
<svg xmlns:rdf="http://www.w3.org/1999/02/22-rdf-syntax-ns#" xmlns="http://www.w3.org/2000/svg" height="32px" width="32px" version="1.1" xmlns:cc="http://creativecommons.org/ns#" xmlns:xlink="http://www.w3.org/1999/xlink" xmlns:dc="http://purl.org/dc/elements/1.1/">
 <defs>
  <linearGradient id="linearGradient5536-6-6">
   <stop stop-color="#e6e6e6" offset="0"/>
   <stop stop-color="#aaaaaa" offset="1"/>
  </linearGradient>
  <linearGradient id="linearGradient10750" y2="623.306" xlink:href="#linearGradient5536-6-6" gradientUnits="userSpaceOnUse" x2="143.471" y1="616.297" x1="133.476"/>
 </defs>
 <metadata>
  <rdf:RDF>
   <cc:Work rdf:about="">
    <dc:format>image/svg+xml</dc:format>
    <dc:type rdf:resource="http://purl.org/dc/dcmitype/StillImage"/>
    <dc:title/>
   </cc:Work>
  </rdf:RDF>
 </metadata>
 <g transform="translate(0,0.96867018)">
  <g fill="url(#linearGradient10750)" transform="matrix(1.5485309,0,0,2.543234,-199.5764,-1561.8458)">
   <path d="m128.881,620.079,3.06859,1.77165,3.06859-1.77165-3.06859-1.77166z"/>
   <path d="m132.482,617.999,3.08099,1.7645,3.08099-1.77881-3.08099-1.7645z"/>
   <path d="m136.111,615.904,3.09343,1.75732,3.09344-1.786-3.09344-1.75731z"/>
   <path d="m132.527,622.134,3.06859,1.77165,3.06859-1.77165-3.06859-1.77166z"/>
   <path d="m136.128,620.054,3.08099,1.7645,3.08099-1.77881-3.08099-1.7645z"/>
   <path d="m139.757,617.959,3.09343,1.75732,3.09344-1.786-3.09344-1.75731z"/>
   <path d="m136.129,624.167,3.06859,1.77165,3.06859-1.77165-3.06859-1.77166z"/>
   <path d="m139.73,622.087,3.08099,1.7645,3.08099-1.77881-3.08099-1.7645z"/>
   <path d="m143.359,619.992,3.09343,1.75732,3.09344-1.786-3.09344-1.75731z"/>
  </g>
 </g>
</svg>
