<?xml version="1.0" encoding="UTF-8" standalone="no"?>
<!-- Created with Inkscape (http://www.inkscape.org/) -->
<svg xmlns:rdf="http://www.w3.org/1999/02/22-rdf-syntax-ns#" xmlns="http://www.w3.org/2000/svg" height="32px" width="32px" version="1.1" xmlns:cc="http://creativecommons.org/ns#" xmlns:xlink="http://www.w3.org/1999/xlink" xmlns:dc="http://purl.org/dc/elements/1.1/">
 <defs>
  <linearGradient id="linearGradient16492" y2="2031.34" gradientUnits="userSpaceOnUse" x2="2090.34" gradientTransform="matrix(1.8823529,0,0,2.1512606,-3903.4704,-4340.7733)" y1="2018.84" x1="2073.91">
   <stop stop-color="#e6e6e6" offset="0"/>
   <stop stop-color="#aaaaaa" offset="1"/>
  </linearGradient>
 </defs>
 <metadata>
  <rdf:RDF>
   <cc:Work rdf:about="">
    <dc:format>image/svg+xml</dc:format>
    <dc:type rdf:resource="http://purl.org/dc/dcmitype/StillImage"/>
    <dc:title/>
   </cc:Work>
  </rdf:RDF>
 </metadata>
 <path d="m22.5882-0.00000122943,0,2.08414-22.5882,0,0,3.63025,22.5882,0,0,2.08393,5.64706,0,0-2.08393,3.76471,0,0-3.63025-3.76471,0,0-2.08414-5.64706,0zm-18.1176,11.9666v2.08393h-4.47059v3.63025h4.47059v2.08414h5.64706v-2.08414h21.8824v-3.63025h-21.8824v-2.08393h-5.64706zm12.4706,12.2351,0,2.08414-16.9412,0,0,3.63025,16.9412,0,0,2.08393,5.64706,0,0-2.08393,9.41176,0,0-3.63025-9.41176,0,0-2.08414-5.64706,0z" fill="url(#linearGradient16492)"/>
</svg>
