<?xml version="1.0" encoding="UTF-8" standalone="no"?>
<!-- Created with Inkscape (http://www.inkscape.org/) -->
<svg xmlns:rdf="http://www.w3.org/1999/02/22-rdf-syntax-ns#" xmlns="http://www.w3.org/2000/svg" height="32px" width="32px" version="1.1" xmlns:cc="http://creativecommons.org/ns#" xmlns:xlink="http://www.w3.org/1999/xlink" xmlns:dc="http://purl.org/dc/elements/1.1/">
 <defs>
  <linearGradient id="linearGradient15275" y2="1989.44" gradientUnits="userSpaceOnUse" x2="173.594" gradientTransform="matrix(2.1139917,0,0,2.0983853,-341.6004,-4145.3603)" y1="1976.5" x1="163.156">
   <stop stop-color="#e6e6e6" offset="0"/>
   <stop stop-color="#aaaaaa" offset="1"/>
  </linearGradient>
 </defs>
 <metadata>
  <rdf:RDF>
   <cc:Work rdf:about="">
    <dc:format>image/svg+xml</dc:format>
    <dc:type rdf:resource="http://purl.org/dc/dcmitype/StillImage"/>
    <dc:title/>
   </cc:Work>
  </rdf:RDF>
 </metadata>
 <path style="baseline-shift:baseline;block-progression:tb;color:#000000;direction:ltr;text-indent:0;text-align:start;enable-background:accumulate;text-transform:none;" d="m10.7095-0.0000423263,0,10.4918,10.57,0,0-10.4918-10.57,0zm17.9689,2.03279c-1.4083,0-2.55917,0.90274-2.97279,2.16397h-2.31218v2.09824h2.31218c0.447234,1.20023,1.60828,2.03284,2.97279,2.03284,1.75131,0,3.17101-1.40948,3.17101-3.14728,0-1.73894-1.4197-3.14776-3.17101-3.14776zm-25.3678,0.06524c-1.75129,0-3.17101,1.40915-3.17101,3.14744,0,1.73845,1.41972,3.1476,3.17101,3.1476,1.38643,0,2.54187-0.867837,2.97279-2.09824h2.31218v-2.09824h-2.31218c-0.43092-1.23072-1.58636-2.09856-2.97279-2.09856zm10.636,1.18049,4.09584,0,0,3.99994-4.09584,0,0-3.99994zm16.4495,8.06545-3.03886,1.18033c0.866388,1.63635,1.16372,3.3792,1.25518,5.24616l3.30312-0.06524c0.144428-2.28058-0.510198-4.33494-1.51944-6.3606zm-29.5959,1.3772c-0.832458,2.21028-0.890887,4.71366-0.726676,6.68859l3.36918-0.3277c-0.28534-1.9409,0.09037-3.7571,0.5285-5.3776-1.09821-0.2054-2.12971-0.5961-3.17101-0.9833zm27.4158,7.5409c-0.373525,1.87414-1.55766,3.32048-2.70856,4.78705l2.64249,1.90187c1.60047-1.67778,2.59841-3.65875,3.30312-5.83641l-3.237-0.8526zm-24.1127,1.3115c-1.00553,0.494-2.09482,0.6921-3.171,0.9836,1.04542,2.1108,2.4877,4.1019,4.02981,5.5738l2.37822-2.1638c-1.44649-1.3212-2.50333-2.9147-3.23703-4.3936zm19.4223,5.1152c-1.62824,1.17723-3.54371,1.74448-5.48319,2.1638l0.726709,2.95074c2.4304-0.271065,4.56756-1.32761,6.60622-2.55735l-1.8497-2.5572zm-13.9391,0.721-1.51942,2.7544c2.14576,1.2206,4.44396,1.6168,6.87046,1.8358l0.330312-3.01631c-2.0457,0-3.85368-0.723007-5.68137-1.57388z" fill="url(#linearGradient15275)"/>
</svg>
