<?xml version="1.0" encoding="UTF-8" standalone="no"?>
<!-- Created with Inkscape (http://www.inkscape.org/) -->
<svg xmlns:rdf="http://www.w3.org/1999/02/22-rdf-syntax-ns#" xmlns="http://www.w3.org/2000/svg" height="32px" width="32px" version="1.1" xmlns:cc="http://creativecommons.org/ns#" xmlns:xlink="http://www.w3.org/1999/xlink" xmlns:dc="http://purl.org/dc/elements/1.1/">
 <defs>
  <linearGradient id="linearGradient16904" y2="671.9" gradientUnits="userSpaceOnUse" x2="153.033" gradientTransform="matrix(1.8146881,0,0,1.8202301,-250.26031,-1196.9619)" y1="660.076" x1="141.209">
   <stop stop-color="#e6e6e6" offset="0"/>
   <stop stop-color="#aaaaaa" offset="1"/>
  </linearGradient>
 </defs>
 <metadata>
  <rdf:RDF>
   <cc:Work rdf:about="">
    <dc:format>image/svg+xml</dc:format>
    <dc:type rdf:resource="http://purl.org/dc/dcmitype/StillImage"/>
    <dc:title/>
   </cc:Work>
  </rdf:RDF>
 </metadata>
 <path style="baseline-shift:baseline;block-progression:tb;color:#000000;direction:ltr;text-indent:0;text-align:start;enable-background:accumulate;text-transform:none;" fill="url(#linearGradient16904)" d="m14.5832,0.756282-0.08948,0.029773-0.05965,0-1.34224,0.20841-0.05965,0-0.08948,0.029773-1.28258,0.327502-0.08948,0-0.05965,0.029774-1.28258,0.476366-0.05966,0.029773-0.05965,0.029773-1.22293,0.565685-0.059655,0.029773-0.059655,0.029773-0.328102,0.20841,1.64051,2.70933,0.178965-0.119092,0.08948-0.059545,0.02983,0,0.95448-0.446593,0.11931-0.059545,1.13344-0.387047,0.984307-0.267956,0.149137-0.029773,0.02983,0,0.984307-0.148864,0.656205-0.029773-0.149137-3.1857zm3.63895,3.33456,0.02983,0,0.02983,0,0.149137,0.029773,0.984308,0.267956,1.13344,0.387047,0.11931,0.059545,0.95448,0.446593,0.02983,0,0.08948,0.059545,0.894825,0.535912,0.08948,0.089318,0.02983,0,0.536895,0.41682,1.90896-2.56047-0.686032-0.506138-0.05965-0.029773-0.05965-0.059545-1.16327-0.684776-0.05965-0.029773-0.05966-0.029773-1.22293-0.565685-0.05965-0.029773-0.05965-0.029773-1.28258-0.476366-0.05965-0.029773-0.08948,0-1.28258-0.327502-0.08948-0.029773-0.05965,0-0.178965-0.029773zm-12.9451,1.04205-0.059655,0.059546-0.059655,0.059545-0.894825,0.982505-0.059655,0.059545-0.029827,0.059547-0.805342,1.1016-0.029827,0.059546-0.059655,0.059546-0.656205,1.16114-0.059655,0.059545-0.029828,0.059546-0.566722,1.22069-0.029827,0.05955-0.029828,0.08932-0.178965,0.50614,3.01258,1.04205,0.11931-0.357275,0.059655-0.119092,0.417585-0.952731,0.089482-0.148865,0.507067-0.863413,0.029828,0,0.686032-0.982505,0.029827-0.029773,0.059655-0.089318,0.686032-0.744323,0.059655-0.059545,0.059655-0.059545l-0.41744-0.17852-2.14758-2.35206zm21.267,2.17342-0.08948,0.059545-1.1931,0.863414,0.08948,0.119092,0.686032,0.982506,0.02983,0,0.507067,0.863414,0.08948,0.148864,0.417584,0.952732,0.05965,0.119092,0.387758,1.13137,0.208792,0.803867,3.10206-0.774095-0.23862-0.952732-0.02983-0.05955-0.02983-0.08932-0.447413-1.25046-0.02983-0.08932-0.02983-0.05954-0.566722-1.22069-0.02983-0.059545-0.05965-0.059546-0.656204-1.16114-0.05965-0.059546-0.02983-0.059545-0.805342-1.1016-0.02983-0.059545-0.05965-0.059545zm-25.6815,7.11572-0.029827,0.05954,0,0.08932-0.059655,1.33978,0,0.05955,0,0.08932,0.059655,1.33978,0,0.08932,0.029827,0.05955,0.178965,1.33978,0.029827,0.08932,0.029827,0.05955,0.298275,1.31001,0.029828,0.05954,0.029827,0.08932,0.23862,0.62523,2.98275-1.07182-0.178965-0.476366-0.029827-0.148865-0.268448-1.01228,0-0.08931-0.029827-0.05954-0.149138-1.01228-0.059655-1.19092,0-0.05954,0-0.08931,0.059655-1.19092,0.029827-0.148895-3.16171-0.476365zm27.1132,2.82842-0.149137,1.01228-0.02983,0.05955,0,0.08931-0.268447,1.01228-0.387758,1.13137-0.05965,0.119091-0.357929,0.774095,2.89327,1.33978,0.417585-0.893187,0.02983-0.05955,0.02983-0.08932,0.447413-1.25046,0.02983-0.08932,0.02983-0.05954,0.298275-1.31001,0.02983-0.05954,0.02983-0.08932,0.178965-1.33978,0.02983-0.05955,0-0.08932,0.05965-1.33978-3.19154-0.148865zm-24.7568,6.99663,0.059655,0.148864,0.059655,0.05954,0.029827,0.05955,0.805342,1.1016,0.029827,0.05954,0.059655,0.05955,0.894825,0.982505,0.059655,0.05954,0.059655,0.05955,0.984307,0.922959,0.059655,0.02978,0.089482,0.05955,1.07379,0.803867,0.059655,0.02977,0.059655,0.05955,0.71586,0.41682,1.64051-2.7391-0.59655-0.327501-0.11931-0.08932-0.83517-0.62523-0.11931-0.08932-0.745687-0.684776-0.059655-0.05955-0.059655-0.05954-0.686032-0.744323-0.059655-0.08932-0.029827-0.02977-0.686032-0.982505-0.029828,0zm21.3565,0.238183-0.05966,0.05954-0.05965,0.05955-0.745687,0.684777-0.11931,0.08932-0.83517,0.62523-0.11931,0.08932-0.894825,0.535912-0.08948,0.02977-0.02983,0.02978-0.924652,0.41682,1.37206,2.88797,1.04396-0.50614,0.05966-0.02978,0.05965-0.02977,1.16327-0.684776,0.05965-0.05955,0.05965-0.02977,1.07379-0.803868,0.08948-0.05955,0.05965-0.02978,0.984308-0.922959,0.05965-0.05955,0.05965-0.05954,0.775515-0.863413-2.35637-2.14365zm-12.5275,4.58502-0.536895,1.51842,0.05965,0,0.08948,0.02977,1.28258,0.327501,0.08948,0.02978,0.05965,0,1.34224,0.20841,0.05965,0,0.08948,0.02978,1.34224,0.05954,0.05966,0,0.08948,0,1.34224-0.05954,0.08948-0.02978,0.05965,0,1.01414-0.148865-0.47724-3.15593-1.01414,0.148865-1.01414,0.05954-0.08948,0-0.05966,0-1.01414-0.05954-1.16327-0.148865-0.05965,0-0.11931-0.02977-0.984307-0.267956-0.149138-0.02978z"/>
</svg>
