<?xml version="1.0" encoding="UTF-8" standalone="no"?>
<!-- Created with Inkscape (http://www.inkscape.org/) -->
<svg xmlns:rdf="http://www.w3.org/1999/02/22-rdf-syntax-ns#" xmlns="http://www.w3.org/2000/svg" height="32px" width="32px" version="1.1" xmlns:cc="http://creativecommons.org/ns#" xmlns:xlink="http://www.w3.org/1999/xlink" xmlns:dc="http://purl.org/dc/elements/1.1/">
 <defs>
  <linearGradient id="linearGradient18756" y2="1552.043" gradientUnits="userSpaceOnUse" y1="1536.98" gradientTransform="matrix(2.1333331,0,0,2.1333286,-465.94439,-3278.8842)" x2="233.474" x1="218.474">
   <stop stop-color="#e6e6e6" offset="0"/>
   <stop stop-color="#aaaaaa" offset="1"/>
  </linearGradient>
 </defs>
 <metadata>
  <rdf:RDF>
   <cc:Work rdf:about="">
    <dc:format>image/svg+xml</dc:format>
    <dc:type rdf:resource="http://purl.org/dc/dcmitype/StillImage"/>
    <dc:title/>
   </cc:Work>
  </rdf:RDF>
 </metadata>
 <path d="m0,0,0,7.999958,1.999986,0,0,5.26687c-1.206206,0.56525-1.999986,1.58782-1.999986,2.73325,0,1.145268,0.7937795,2.101012,1.999986,2.666764v5.266373h-1.999986v8.00029h7.933301v-2.000031h5.33334c0.56401,1.21459,1.58307,2.06653,2.73334,2.06653,1.150277,0,2.16933-0.851945,2.733342-2.066522h5.200009v2.000031h7.999975v-8.00029h-2.000002v-5.266373c1.2356-0.56078,2.0667-1.50475,2.0667-2.66677,0-1.16201-0.8311-2.17281-2.06669-2.73325v-5.26687h2.000002v-7.999958h-7.999975v2.000197h-5.200009c-0.56509-1.208278-1.58683-2.000199-2.73335-2.000199-1.14648,0-2.16825,0.7919208-2.73334,2.000197h-5.33334l0.000001-2.000197h-7.933301zm7.933301,6.000092,5.133386,0c0.49714,1.496127,1.626873,2.533284,2.933297,2.533284,1.306439,0,2.436156-1.037158,2.933346-2.533284h5.000005v1.999865h2.000019v5.066734c-1.456352,0.50921-2.466699,1.648674-2.466699,2.93339,0,1.284551,1.010347,2.357358,2.466699,2.8669v5.066237h-2.000019v2.000363h-5.066662c-0.509908-1.454676-1.583099-2.467125-2.866689-2.467125-1.283542,0-2.356766,1.012451-2.866657,2.467125h-5.200026v-2.000363h-1.933296v-4.999912c1.50069-0.495779,2.533307-1.624631,2.533307-2.933225,0-1.308758-1.032617-2.504433-2.533307-3.000047v-5.000077h1.933296v-1.999865zm6.000024,7.999959,0,3.999897,4.000004,0,0-3.999897-4.000004,0z" fill="url(#linearGradient18756)"/>
</svg>
